<?xml version="1.0" encoding="utf-8"?>
<!-- Generator: Adobe Illustrator 17.0.0, SVG Export Plug-In . SVG Version: 6.00 Build 0)  -->
<!DOCTYPE svg PUBLIC "-//W3C//DTD SVG 1.1//EN" "http://www.w3.org/Graphics/SVG/1.1/DTD/svg11.dtd">
<svg version="1.1" id="Layer_1" xmlns="http://www.w3.org/2000/svg" xmlns:xlink="http://www.w3.org/1999/xlink" x="0px" y="0px"
	 width="240.94px" height="141.73px" viewBox="0 0 240.94 141.73" enable-background="new 0 0 240.94 141.73" xml:space="preserve">
<g>
	<path fill-rule="evenodd" clip-rule="evenodd" fill="#1A4685" d="M73.844,60.298c1.5,0,3.002,0.01,4.503-0.004
		c1.533-0.013,2.049-0.534,2.05-2.034c0.001-2.24,0.004-4.477-0.002-6.714c-0.005-1.397-0.451-1.845-1.855-1.848
		c-3.104-0.008-6.208-0.008-9.311,0c-1.409,0.003-1.887,0.388-1.926,1.815c-0.064,2.394-0.046,4.79-0.012,7.186
		c0.014,0.945,0.764,1.574,1.814,1.589c1.579,0.024,3.16,0.006,4.738,0.006C73.844,60.294,73.844,60.296,73.844,60.298z"/>
	<g>
		<g>
			<path fill="#1A4685" d="M36.288,86.266c0.097,0,0.377,0.831,0.838,2.491c0.209,0.545,1.65,5.04,4.325,13.487l-0.089,0.047h-5.073
				c-0.096,0-0.305-0.595-0.626-1.779c-0.148-0.355-0.949-2.867-2.402-7.531h-0.044c-0.089,0.373-1.069,3.462-2.938,9.264
				l-0.089,0.047h-5.073c-0.06,0-0.09-0.03-0.09-0.091c3.174-9.969,4.879-15.28,5.118-15.935H36.288z"/>
			<path fill="#1A4685" d="M46.882,86.266h12.068c0.059,0.006,0.09,0.035,0.09,0.088v1.509c0,0.061-0.031,0.091-0.09,0.091h-8.415
				c-1.176,0-2.022,0.639-2.537,1.922c-0.089,0.238-0.134,0.487-0.134,0.75v0.179c0,1.034,0.592,1.849,1.776,2.445
				c0.44,0.119,0.946,0.181,1.521,0.181h3.508c1.639,0,2.961,0.858,3.967,2.579c0.268,0.642,0.403,1.253,0.403,1.834
				c0,1.884-0.98,3.276-2.939,4.177c-0.536,0.181-1.039,0.271-1.508,0.271H42.658c-0.06,0-0.089-0.03-0.089-0.091v-1.509
				c0.006-0.061,0.037-0.091,0.089-0.091h7.834c1.601,0,2.626-0.609,3.072-1.831c0.12-0.379,0.18-0.703,0.18-0.974
				c0-0.831-0.402-1.563-1.207-2.188c-0.463-0.321-1.01-0.481-1.643-0.481h-3.878c-1.75,0-3.099-0.86-4.045-2.58
				c-0.269-0.546-0.402-1.096-0.402-1.653v-0.403c0-1.587,0.86-2.861,2.581-3.821C45.768,86.4,46.346,86.266,46.882,86.266z"/>
			<path fill="#1A4685" d="M64.47,86.266h7.834c1.527,0,2.804,0.8,3.833,2.401c0.297,0.67,0.446,1.203,0.446,1.599v8.013
				c0,1.161-0.666,2.261-2,3.296c-0.798,0.477-1.573,0.717-2.325,0.717H64.47c-1.571,0-2.876-0.832-3.911-2.493
				c-0.269-0.692-0.402-1.271-0.402-1.731v-7.577c0-1.587,0.861-2.861,2.583-3.821C63.356,86.4,63.935,86.266,64.47,86.266z
				 M65.454,97.978c0,1.114,0.622,1.947,1.866,2.491c0.313,0.09,0.626,0.132,0.939,0.132h0.268c1.386,0,2.306-0.744,2.762-2.233
				c0.029-0.291,0.043-0.509,0.043-0.659v-6.862c0-1.443-0.727-2.396-2.179-2.848c-0.253-0.03-0.461-0.045-0.626-0.045h-0.313
				c-1.408,0-2.329,0.771-2.76,2.313V97.978z"/>
			<path fill="#1A4685" d="M82.014,86.266h12.07c0.06,0.006,0.09,0.035,0.09,0.088v1.509c0,0.061-0.03,0.091-0.09,0.091h-8.416
				c-1.176,0-2.022,0.639-2.537,1.922c-0.089,0.238-0.134,0.487-0.134,0.75v0.179c0,1.034,0.593,1.849,1.776,2.445
				c0.441,0.119,0.947,0.181,1.521,0.181h3.508c1.64,0,2.962,0.858,3.968,2.579c0.268,0.642,0.403,1.253,0.403,1.834
				c0,1.884-0.981,3.276-2.939,4.177c-0.537,0.181-1.04,0.271-1.509,0.271H77.79c-0.06,0-0.09-0.03-0.09-0.091v-1.509
				c0.007-0.061,0.038-0.091,0.09-0.091h7.833c1.602,0,2.627-0.609,3.074-1.831c0.118-0.379,0.178-0.703,0.178-0.974
				c0-0.831-0.403-1.563-1.207-2.188c-0.462-0.321-1.01-0.481-1.643-0.481h-3.878c-1.75,0-3.1-0.86-4.045-2.58
				c-0.269-0.546-0.403-1.096-0.403-1.653v-0.403c0-1.587,0.861-2.861,2.582-3.821C80.9,86.4,81.478,86.266,82.014,86.266z"/>
			<path fill="#1A4685" d="M95.38,86.266h4.806c0.06,0.015,0.089,0.044,0.089,0.088V102.2c0,0.06-0.029,0.091-0.089,0.091H95.38
				c-0.06,0-0.089-0.03-0.089-0.091V86.354C95.297,86.295,95.328,86.266,95.38,86.266z"/>
			<path fill="#1A4685" d="M101.482,86.266h5.073c0.402,0.663,1.959,3.69,4.67,9.085h0.089c2.585-5.118,4.146-8.147,4.684-9.085
				h4.983c0.06,0.006,0.089,0.035,0.089,0.088V102.2c0,0.06-0.028,0.091-0.089,0.091h-4.86c-0.054,0-0.08-0.03-0.08-0.091v-5.876
				h-0.043c-1.521,3.053-2.545,5.042-3.074,5.967h-3.252c-0.09,0-0.786-1.324-2.09-3.969c-0.774-1.438-1.162-2.192-1.162-2.269
				h-0.044v6.146c0,0.06-0.029,0.091-0.09,0.091h-4.804c-0.061,0-0.089-0.03-0.089-0.091V86.354
				C101.399,86.295,101.429,86.266,101.482,86.266z"/>
			<path fill="#1A4685" d="M127.954,86.266h16.07c0.059,0.006,0.088,0.035,0.088,0.088v1.509c0,0.061-0.029,0.091-0.088,0.091
				h-5.521V102.2c0,0.06-0.03,0.091-0.088,0.091h-4.85c-0.06,0-0.09-0.03-0.09-0.091V87.953h-5.52c-0.06,0-0.089-0.03-0.089-0.091
				v-1.509C127.871,86.295,127.901,86.266,127.954,86.266z"/>
			<path fill="#1A4685" d="M145.319,86.266h11.889c1.423,0,2.638,0.695,3.643,2.089c0.446,0.73,0.67,1.487,0.67,2.271v0.179
				c0,1.682-0.905,3.004-2.715,3.966c-0.634,0.237-1.196,0.356-1.688,0.356h-0.401l4.759,7.074v0.091h-5.296
				c-0.096-0.068-1.713-2.455-4.85-7.165h-1.073v7.074c0,0.06-0.03,0.091-0.09,0.091h-4.849c-0.061,0-0.09-0.03-0.09-0.091V86.354
				C145.236,86.295,145.266,86.266,145.319,86.266z M150.258,87.953v5.477h2.85c1.624,0,2.663-0.607,3.118-1.823
				c0.118-0.424,0.179-0.737,0.179-0.938c0-1.229-0.682-2.104-2.046-2.627c-0.238-0.06-0.491-0.088-0.759-0.088H150.258z"/>
			<path fill="#1A4685" d="M173.903,86.266c0.097,0,0.376,0.831,0.839,2.491c0.208,0.545,1.65,5.04,4.325,13.487l-0.09,0.047h-5.074
				c-0.096,0-0.306-0.595-0.626-1.779c-0.148-0.355-0.95-2.867-2.402-7.531h-0.045c-0.089,0.373-1.069,3.462-2.939,9.264
				l-0.088,0.047h-5.073c-0.061,0-0.089-0.03-0.089-0.091c3.172-9.969,4.878-15.28,5.117-15.935H173.903z"/>
			<path fill="#1A4685" d="M180.273,86.266h5.252c0.119,0.088,1.586,2.227,4.403,6.414c0.954,1.364,1.445,2.09,1.475,2.18h0.045
				v-8.506c0.007-0.059,0.036-0.088,0.089-0.088h4.851c0.059,0.006,0.09,0.035,0.09,0.088V102.2c0,0.06-0.031,0.091-0.09,0.091
				h-5.253c-0.275-0.277-2.234-3.143-5.877-8.594h-0.045v8.503c0,0.06-0.029,0.091-0.09,0.091h-4.849c-0.059,0-0.09-0.03-0.09-0.091
				V86.354C180.191,86.295,180.221,86.266,180.273,86.266z"/>
			<path fill="#1A4685" d="M201.907,86.266h12.068c0.06,0.006,0.09,0.035,0.09,0.088v1.509c0,0.061-0.03,0.091-0.09,0.091h-8.414
				c-1.178,0-2.023,0.639-2.537,1.922c-0.089,0.238-0.135,0.487-0.135,0.75v0.179c0,1.034,0.594,1.849,1.777,2.445
				c0.439,0.119,0.946,0.181,1.52,0.181h3.508c1.64,0,2.961,0.858,3.968,2.579c0.268,0.642,0.402,1.253,0.402,1.834
				c0,1.884-0.98,3.276-2.94,4.177c-0.536,0.181-1.038,0.271-1.508,0.271h-11.934c-0.061,0-0.089-0.03-0.089-0.091v-1.509
				c0.007-0.061,0.038-0.091,0.089-0.091h7.833c1.603,0,2.627-0.609,3.073-1.831c0.119-0.379,0.18-0.703,0.18-0.974
				c0-0.831-0.403-1.563-1.206-2.188c-0.463-0.321-1.01-0.481-1.643-0.481h-3.878c-1.751,0-3.1-0.86-4.044-2.58
				c-0.269-0.546-0.403-1.096-0.403-1.653v-0.403c0-1.587,0.861-2.861,2.582-3.821C200.793,86.4,201.371,86.266,201.907,86.266z"/>
		</g>
		<circle fill-rule="evenodd" clip-rule="evenodd" fill="#1A4685" cx="140.32" cy="72.54" r="9.476"/>
		<path fill-rule="evenodd" clip-rule="evenodd" fill="#F18C21" d="M168.279,63.902c0,2.841-0.024,5.683,0.011,8.525
			c0.015,1.253-0.477,1.806-1.772,1.792c-3.938-0.039-7.876-0.03-11.815,0c-1.062,0.008-1.572-0.317-1.455-1.478
			c0.099-0.988,0.097-1.998,0.012-2.988c-0.096-1.15,0.42-1.508,1.474-1.495c1.943,0.027,3.889-0.042,5.833,0.011
			c1.408,0.039,2.019-0.589,1.984-1.96c-0.099-3.93,0.129-7.866-0.215-11.792c-0.197-2.228-1.089-4.155-2.671-5.691
			c-3.143-3.056-6.364-6.032-9.544-9.051c-0.654-0.62-1.415-0.894-2.304-0.893c-2.393,0-4.787,0.012-7.179-0.031
			c-0.954-0.019-1.386,0.361-1.381,1.306c0.012,1.744,0.012,3.489,0.004,5.235c-0.005,1.141,0.597,1.601,1.687,1.597
			c2.342-0.007,4.686-0.01,7.03,0.017c1.747,0.019,1.972,0.266,2.021,2.003c0.104,3.706,0.104,3.706-3.574,3.706
			c-3.69-0.003-7.38-0.034-11.069,0.012c-1.354,0.016-1.854-0.521-1.843-1.863c0.042-5.384,0.037-10.768,0.003-16.154
			c-0.007-1.264,0.466-1.803,1.757-1.793c4.936,0.034,9.871,0.024,14.808,0.005c0.915-0.003,1.615,0.33,2.267,0.944
			c3.667,3.447,7.399,6.826,11.018,10.324c3.565,3.447,5.097,7.742,4.958,12.684c-0.068,2.341-0.012,4.686-0.012,7.029
			C168.3,63.902,168.289,63.902,168.279,63.902z"/>
		<path fill-rule="evenodd" clip-rule="evenodd" fill="#F18C21" d="M109.646,33.442c2.376,0.431,4.744,0.914,7.111,1.401
			c2.675,0.55,5.337,1.167,8.02,1.669c1.636,0.306,2.139,0.778,2.144,2.436c0.006,2.058,0.003,4.114,0.001,6.169
			c-0.002,1.814-0.547,2.362-2.353,2.362c-6.117,0.001-26.665,0.001-32.782,0.001c-6.196,0-12.392,0.003-18.589-0.001
			c-1.565-0.003-2.138-0.587-2.139-2.157c-0.003-2.03-0.001-4.061-0.001-6.092c0-1.935,0.478-2.499,2.344-3.101
			c3.102-1,6.169-2.102,9.275-3.087c1.492-0.474,2.934-1.182,4.577-1.091L109.646,33.442z"/>
		<path fill-rule="evenodd" clip-rule="evenodd" fill="#F18C21" d="M91.699,62.516c-6.142,0-12.283,0-18.425,0.002
			c-1.821,0.002-2.217,0.402-2.217,2.241c0,2.056-0.002,4.114,0,6.168c0.002,1.612,0.568,2.183,2.192,2.183
			c11.623,0.002,37.677,0,49.302,0c0.843,0,1.688,0.017,2.529-0.007c1.156-0.032,1.816-0.674,1.829-1.836
			c0.026-2.32,0.025-4.64,0.002-6.958c-0.012-1.305-0.569-1.792-1.964-1.792C118.676,62.513,97.972,62.515,91.699,62.516
			C91.699,62.516,91.699,62.516,91.699,62.516z"/>
		<path fill-rule="evenodd" clip-rule="evenodd" fill="#1A4685" d="M111.955,49.7c-4.27,0-22.972-0.001-27.242,0.002
			c-1.647,0.001-1.982,0.341-1.982,1.99c0,2.269-0.004,4.537,0.003,6.803c0.004,1.261,0.495,1.789,1.771,1.792
			c8.701,0.012,31.83,0.01,40.53,0c1.206-0.002,1.866-0.663,1.879-1.87c0.023-2.346,0.022-4.693,0.003-7.039
			c-0.011-1.179-0.589-1.676-1.911-1.678c-4.351-0.006-8.7-0.003-13.05-0.003C111.955,49.698,111.955,49.7,111.955,49.7z"/>
		<g>
			<path fill="#F18C21" d="M25.329,105.853h0.517l1.113,2.763l1.114-2.763h0.511l-1.625,3.934L25.329,105.853z"/>
			<path fill="#F18C21" d="M29.154,105.853h2.008v0.426H29.62v1.048h1.504v0.427H29.62v1.415h1.542v0.427h-2.008V105.853z"/>
			<path fill="#F18C21" d="M31.941,105.667l2.807,2.956v-2.771h0.478v3.896l-2.822-2.946v2.793h-0.462V105.667z"/>
			<path fill="#F18C21" d="M36.675,106.278h-0.894v-0.426h2.248v0.426h-0.893v3.316h-0.46V106.278z"/>
			<path fill="#F18C21" d="M38.636,105.853h2.008v0.426h-1.542v1.048h1.504v0.427h-1.504v1.415h1.542v0.427h-2.008V105.853z"/>
			<path fill="#F18C21" d="M43.134,106.561c-0.14-0.241-0.344-0.36-0.609-0.36c-0.236,0-0.416,0.092-0.538,0.275
				c-0.055,0.081-0.083,0.161-0.083,0.24c0,0.237,0.122,0.402,0.367,0.495l0.425,0.165c0.434,0.168,0.71,0.392,0.826,0.665
				c0.067,0.157,0.098,0.314,0.098,0.474c0,0.237-0.064,0.449-0.198,0.637c-0.132,0.188-0.308,0.328-0.53,0.422
				c-0.155,0.066-0.307,0.1-0.453,0.1c-0.416,0-0.738-0.167-0.966-0.502c-0.112-0.161-0.178-0.343-0.199-0.548l0.465-0.099
				c0,0.149,0.038,0.28,0.114,0.396c0.139,0.209,0.343,0.313,0.61,0.313c0.179,0,0.334-0.059,0.465-0.175
				c0.129-0.118,0.201-0.266,0.216-0.443l0.01-0.124c0.014-0.185-0.052-0.334-0.199-0.448c-0.116-0.091-0.291-0.185-0.522-0.285
				c-0.276-0.117-0.456-0.203-0.543-0.257c-0.302-0.178-0.453-0.444-0.453-0.795c0-0.237,0.097-0.448,0.292-0.633
				c0.213-0.202,0.484-0.305,0.814-0.305c0.419,0,0.739,0.19,0.957,0.568L43.134,106.561z"/>
			<path fill="#F18C21" d="M46.063,105.853h2.007v0.426h-1.542v1.048h1.502v0.427h-1.502v1.415h1.542v0.427h-2.007V105.853z"/>
			<path fill="#F18C21" d="M49.439,106.278h-0.893v-0.426h2.247v0.426H49.9v3.316h-0.46V106.278z"/>
			<path fill="#F18C21" d="M53.627,106.278h-0.895v-0.426h2.248v0.426h-0.894v3.316h-0.459V106.278z"/>
			<path fill="#F18C21" d="M55.587,105.853h0.669c0.436,0,0.747,0.068,0.937,0.203c0.29,0.21,0.436,0.49,0.436,0.845
				c0,0.274-0.082,0.513-0.245,0.708c-0.163,0.197-0.38,0.316-0.652,0.358l1.179,1.628h-0.559l-1.106-1.58h-0.193v1.58h-0.465
				V105.853z M56.053,106.271v1.36c0.259,0,0.471-0.021,0.635-0.057c0.337-0.079,0.506-0.293,0.506-0.647
				c0-0.439-0.329-0.657-0.986-0.657H56.053z"/>
			<path fill="#F18C21" d="M59.917,105.69l1.79,3.904h-0.504l-0.429-0.938h-1.708l-0.427,0.938h-0.508L59.917,105.69z
				 M59.916,106.715l-0.66,1.517h1.327L59.916,106.715z"/>
			<path fill="#F18C21" d="M62.218,105.667l2.807,2.956v-2.771h0.479v3.896l-2.823-2.946v2.793h-0.463V105.667z"/>
			<path fill="#F18C21" d="M68.075,106.561c-0.141-0.241-0.344-0.36-0.611-0.36c-0.236,0-0.415,0.092-0.538,0.275
				c-0.055,0.081-0.082,0.161-0.082,0.24c0,0.237,0.122,0.402,0.366,0.495l0.425,0.165c0.436,0.168,0.71,0.392,0.827,0.665
				c0.066,0.157,0.099,0.314,0.099,0.474c0,0.237-0.065,0.449-0.197,0.637c-0.133,0.188-0.31,0.328-0.531,0.422
				c-0.155,0.066-0.307,0.1-0.453,0.1c-0.415,0-0.737-0.167-0.967-0.502c-0.11-0.161-0.177-0.343-0.197-0.548l0.465-0.099
				c0,0.149,0.036,0.28,0.113,0.396c0.139,0.209,0.343,0.313,0.61,0.313c0.179,0,0.334-0.059,0.464-0.175
				c0.13-0.118,0.203-0.266,0.216-0.443l0.011-0.124c0.015-0.185-0.052-0.334-0.199-0.448c-0.116-0.091-0.291-0.185-0.523-0.285
				c-0.274-0.117-0.455-0.203-0.543-0.257c-0.302-0.178-0.452-0.444-0.452-0.795c0-0.237,0.098-0.448,0.292-0.633
				c0.213-0.202,0.485-0.305,0.814-0.305c0.42,0,0.738,0.19,0.956,0.568L68.075,106.561z"/>
			<path fill="#F18C21" d="M69.32,105.853h0.589c0.24,0,0.46,0.019,0.657,0.057c0.261,0.048,0.461,0.166,0.599,0.356
				c0.132,0.177,0.196,0.401,0.196,0.673c0,0.378-0.138,0.661-0.414,0.85c-0.233,0.159-0.493,0.238-0.784,0.238h-0.379v1.568H69.31
				L69.32,105.853z M69.988,106.271h-0.203v1.343h0.154c0.658,0.023,0.986-0.218,0.986-0.713
				C70.925,106.48,70.613,106.271,69.988,106.271z"/>
			<path fill="#F18C21" d="M73.714,105.773c0.544,0,1.007,0.19,1.389,0.566c0.38,0.38,0.571,0.84,0.571,1.383
				c0,0.35-0.086,0.675-0.259,0.973c-0.172,0.298-0.411,0.536-0.713,0.713c-0.304,0.175-0.632,0.265-0.987,0.265
				c-0.35,0-0.675-0.086-0.974-0.26c-0.3-0.172-0.537-0.41-0.714-0.714c-0.178-0.303-0.267-0.629-0.267-0.977
				c0-0.35,0.087-0.676,0.262-0.974c0.174-0.299,0.414-0.537,0.717-0.714C73.038,105.861,73.363,105.773,73.714,105.773z
				 M73.714,106.2c-0.269,0-0.518,0.067-0.745,0.2c-0.229,0.135-0.41,0.319-0.545,0.553c-0.135,0.234-0.202,0.491-0.202,0.77
				c0,0.273,0.066,0.524,0.198,0.755c0.131,0.23,0.313,0.415,0.544,0.552c0.233,0.137,0.483,0.204,0.75,0.204
				c0.268,0,0.516-0.065,0.745-0.2c0.229-0.136,0.411-0.32,0.547-0.556c0.134-0.233,0.203-0.483,0.203-0.755
				c0-0.271-0.066-0.523-0.196-0.757c-0.13-0.235-0.312-0.421-0.545-0.561C74.237,106.269,73.986,106.2,73.714,106.2z"/>
			<path fill="#F18C21" d="M76.375,105.853h0.669c0.435,0,0.748,0.068,0.937,0.203c0.291,0.21,0.437,0.49,0.437,0.845
				c0,0.274-0.082,0.513-0.245,0.708c-0.163,0.197-0.38,0.316-0.651,0.358l1.18,1.628h-0.56l-1.107-1.58H76.84v1.58h-0.465V105.853z
				 M76.84,106.271v1.36c0.26,0,0.472-0.021,0.635-0.057c0.337-0.079,0.505-0.293,0.505-0.647c0-0.439-0.328-0.657-0.986-0.657
				H76.84z"/>
			<path fill="#F18C21" d="M79.762,106.278h-0.894v-0.426h2.248v0.426h-0.894v3.316h-0.46V106.278z"/>
			<path fill="#F18C21" d="M83.363,105.853h0.779c0.409,0,0.773,0.075,1.093,0.221c0.362,0.17,0.632,0.418,0.809,0.747
				c0.135,0.249,0.201,0.533,0.201,0.854c0,0.54-0.163,0.983-0.489,1.336c-0.364,0.389-0.887,0.585-1.57,0.585h-0.823V105.853z
				 M83.831,106.278v2.89h0.284c0.711,0,1.199-0.234,1.468-0.701c0.126-0.22,0.188-0.471,0.188-0.754
				c0-0.485-0.168-0.852-0.504-1.103c-0.298-0.22-0.699-0.332-1.203-0.332H83.831z"/>
			<path fill="#F18C21" d="M86.947,105.853h2.007v0.426h-1.542v1.048h1.503v0.427h-1.503v1.415h1.542v0.427h-2.007V105.853z"/>
			<path fill="#F18C21" d="M93.217,108.643l1.289-2.952l0.766,3.904h-0.486l-0.437-2.492l-1.131,2.58l-1.126-2.59l-0.449,2.502
				h-0.469l0.764-3.908L93.217,108.643z"/>
			<path fill="#F18C21" d="M97.323,105.69l1.79,3.904H98.61l-0.43-0.938h-1.709l-0.426,0.938h-0.509L97.323,105.69z M97.323,106.715
				l-0.659,1.517h1.327L97.323,106.715z"/>
			<path fill="#F18C21" d="M99.819,106.278h-0.893v-0.426h2.247v0.426h-0.894v3.316h-0.46V106.278z"/>
			<path fill="#F18C21" d="M101.779,105.853h2.009v0.426h-1.544v1.048h1.504v0.427h-1.504v1.415h1.544v0.427h-2.009V105.853z
				 M102.874,104.528l0.417,0.208l-0.823,0.748l-0.214-0.132L102.874,104.528z"/>
			<path fill="#F18C21" d="M104.612,105.853h0.669c0.436,0,0.748,0.068,0.937,0.203c0.291,0.21,0.436,0.49,0.436,0.845
				c0,0.274-0.082,0.513-0.245,0.708c-0.163,0.197-0.379,0.316-0.651,0.358l1.18,1.628h-0.561l-1.107-1.58h-0.192v1.58h-0.465
				V105.853z M105.078,106.271v1.36c0.26,0,0.472-0.021,0.633-0.057c0.339-0.079,0.507-0.293,0.507-0.647
				c0-0.439-0.328-0.657-0.986-0.657H105.078z"/>
			<path fill="#F18C21" d="M107.536,105.853h0.466v3.742h-0.466V105.853z"/>
			<path fill="#F18C21" d="M110.34,105.69l1.79,3.904h-0.502l-0.43-0.938h-1.709l-0.426,0.938h-0.509L110.34,105.69z
				 M110.339,106.715l-0.66,1.517h1.327L110.339,106.715z"/>
			<path fill="#F18C21" d="M114.9,105.853h0.461v2.379c0,0.419-0.122,0.762-0.37,1.029c-0.253,0.274-0.589,0.412-1.004,0.412
				c-0.275,0-0.517-0.063-0.727-0.191c-0.218-0.132-0.381-0.32-0.492-0.564c-0.097-0.217-0.144-0.437-0.144-0.663v-2.401h0.462
				v2.288c0,0.317,0.068,0.576,0.204,0.767c0.156,0.218,0.389,0.326,0.698,0.326c0.609,0,0.913-0.379,0.913-1.135V105.853z"/>
			<path fill="#F18C21" d="M117.073,107.631l-1.027-1.778h0.536l0.762,1.358l0.814-1.358h0.534l-1.084,1.784l1.14,1.958h-0.529
				l-0.876-1.544l-0.922,1.544H115.9L117.073,107.631z"/>
			<path fill="#F18C21" d="M120.997,105.853h0.78c0.408,0,0.772,0.075,1.092,0.221c0.361,0.17,0.631,0.418,0.81,0.747
				c0.134,0.249,0.201,0.533,0.201,0.854c0,0.54-0.163,0.983-0.489,1.336c-0.364,0.389-0.887,0.585-1.571,0.585h-0.823V105.853z
				 M121.464,106.278v2.89h0.284c0.71,0,1.199-0.234,1.468-0.701c0.126-0.22,0.19-0.471,0.19-0.754c0-0.485-0.169-0.852-0.505-1.103
				c-0.298-0.22-0.699-0.332-1.203-0.332H121.464z"/>
			<path fill="#F18C21" d="M124.58,105.853h2.008v0.426h-1.544v1.048h1.505v0.427h-1.505v1.415h1.544v0.427h-2.008V105.853z"/>
			<path fill="#F18C21" d="M131.818,108.859v0.549c-0.309,0.175-0.633,0.265-0.976,0.265c-0.259,0-0.505-0.049-0.744-0.15
				c-0.491-0.206-0.844-0.561-1.058-1.064c-0.105-0.244-0.158-0.506-0.158-0.784c0-0.414,0.126-0.779,0.376-1.101
				c0.193-0.243,0.429-0.438,0.709-0.584c0.284-0.143,0.58-0.216,0.883-0.216c0.359,0,0.682,0.082,0.966,0.243v0.544
				c-0.289-0.247-0.622-0.37-0.997-0.37c-0.396,0-0.741,0.146-1.033,0.443c-0.294,0.294-0.44,0.643-0.44,1.04
				c0,0.451,0.146,0.826,0.44,1.124c0.292,0.298,0.637,0.445,1.033,0.445C131.178,109.243,131.51,109.115,131.818,108.859z"/>
			<path fill="#F18C21" d="M134.311,105.773c0.545,0,1.008,0.19,1.388,0.566c0.382,0.38,0.573,0.84,0.573,1.383
				c0,0.35-0.087,0.675-0.26,0.973c-0.172,0.298-0.411,0.536-0.715,0.713c-0.304,0.175-0.632,0.265-0.986,0.265
				c-0.35,0-0.675-0.086-0.973-0.26c-0.299-0.172-0.538-0.41-0.715-0.714c-0.177-0.303-0.265-0.629-0.265-0.977
				c0-0.35,0.085-0.676,0.26-0.974c0.175-0.299,0.413-0.537,0.717-0.714C133.636,105.861,133.96,105.773,134.311,105.773z
				 M134.311,106.2c-0.269,0-0.518,0.067-0.746,0.2c-0.228,0.135-0.409,0.319-0.543,0.553c-0.135,0.234-0.203,0.491-0.203,0.77
				c0,0.273,0.066,0.524,0.198,0.755c0.131,0.23,0.314,0.415,0.546,0.552c0.233,0.137,0.483,0.204,0.748,0.204
				c0.269,0,0.517-0.065,0.746-0.2c0.229-0.136,0.411-0.32,0.547-0.556c0.135-0.233,0.203-0.483,0.203-0.755
				c0-0.271-0.066-0.523-0.197-0.757c-0.131-0.235-0.313-0.421-0.544-0.561C134.835,106.269,134.583,106.2,134.311,106.2z"/>
			<path fill="#F18C21" d="M136.927,105.667l2.807,2.956v-2.771h0.477v3.896l-2.822-2.946v2.793h-0.462V105.667z"/>
			<path fill="#F18C21" d="M142.782,106.561c-0.14-0.241-0.344-0.36-0.61-0.36c-0.237,0-0.416,0.092-0.539,0.275
				c-0.054,0.081-0.081,0.161-0.081,0.24c0,0.237,0.122,0.402,0.365,0.495l0.426,0.165c0.435,0.168,0.71,0.392,0.827,0.665
				c0.065,0.157,0.099,0.314,0.099,0.474c0,0.237-0.066,0.449-0.199,0.637c-0.133,0.188-0.31,0.328-0.53,0.422
				c-0.155,0.066-0.306,0.1-0.453,0.1c-0.415,0-0.736-0.167-0.966-0.502c-0.112-0.161-0.179-0.343-0.199-0.548l0.464-0.099
				c0,0.149,0.038,0.28,0.114,0.396c0.14,0.209,0.343,0.313,0.611,0.313c0.179,0,0.333-0.059,0.463-0.175
				c0.131-0.118,0.203-0.266,0.218-0.443l0.009-0.124c0.015-0.185-0.051-0.334-0.199-0.448c-0.116-0.091-0.29-0.185-0.523-0.285
				c-0.275-0.117-0.455-0.203-0.542-0.257c-0.303-0.178-0.454-0.444-0.454-0.795c0-0.237,0.097-0.448,0.292-0.633
				c0.213-0.202,0.485-0.305,0.813-0.305c0.422,0,0.74,0.19,0.957,0.568L142.782,106.561z"/>
			<path fill="#F18C21" d="M144.574,106.278h-0.895v-0.426h2.249v0.426h-0.895v3.316h-0.46V106.278z"/>
			<path fill="#F18C21" d="M146.534,105.853h0.669c0.435,0,0.747,0.068,0.937,0.203c0.291,0.21,0.436,0.49,0.436,0.845
				c0,0.274-0.082,0.513-0.245,0.708c-0.164,0.197-0.381,0.316-0.652,0.358l1.179,1.628h-0.559l-1.107-1.58h-0.194v1.58h-0.464
				V105.853z M146.998,106.271v1.36c0.26,0,0.472-0.021,0.635-0.057c0.337-0.079,0.506-0.293,0.506-0.647
				c0-0.439-0.33-0.657-0.986-0.657H146.998z"/>
			<path fill="#F18C21" d="M151.686,105.853h0.462v2.379c0,0.419-0.123,0.762-0.371,1.029c-0.253,0.274-0.588,0.412-1.005,0.412
				c-0.274,0-0.517-0.063-0.726-0.191c-0.219-0.132-0.384-0.32-0.493-0.564c-0.096-0.217-0.146-0.437-0.146-0.663v-2.401h0.464
				v2.288c0,0.317,0.067,0.576,0.202,0.767c0.157,0.218,0.391,0.326,0.698,0.326c0.609,0,0.913-0.379,0.913-1.135V105.853z"/>
			<path fill="#F18C21" d="M155.77,108.859v0.549c-0.308,0.175-0.634,0.265-0.975,0.265c-0.258,0-0.507-0.049-0.743-0.15
				c-0.492-0.206-0.844-0.561-1.06-1.064c-0.105-0.244-0.157-0.506-0.157-0.784c0-0.414,0.125-0.779,0.378-1.101
				c0.191-0.243,0.427-0.438,0.706-0.584c0.286-0.143,0.582-0.216,0.885-0.216c0.361,0,0.682,0.082,0.965,0.243v0.544
				c-0.289-0.247-0.621-0.37-0.997-0.37c-0.396,0-0.741,0.146-1.034,0.443c-0.293,0.294-0.439,0.643-0.439,1.04
				c0,0.451,0.146,0.826,0.439,1.124c0.293,0.298,0.638,0.445,1.034,0.445C155.13,109.243,155.462,109.115,155.77,108.859z"/>
			<path fill="#F18C21" d="M157.113,106.278h-0.894v-0.426h2.247v0.426h-0.893v3.316h-0.461V106.278z"/>
			<path fill="#F18C21" d="M159.057,105.853h0.465v3.742h-0.465V105.853z"/>
			<path fill="#F18C21" d="M162.168,105.773c0.545,0,1.008,0.19,1.388,0.566c0.381,0.38,0.572,0.84,0.572,1.383
				c0,0.35-0.086,0.675-0.26,0.973c-0.172,0.298-0.411,0.536-0.714,0.713c-0.304,0.175-0.632,0.265-0.986,0.265
				c-0.35,0-0.675-0.086-0.973-0.26c-0.299-0.172-0.538-0.41-0.715-0.714c-0.177-0.303-0.266-0.629-0.266-0.977
				c0-0.35,0.087-0.676,0.262-0.974c0.175-0.299,0.414-0.537,0.717-0.714C161.491,105.861,161.816,105.773,162.168,105.773z
				 M162.168,106.2c-0.27,0-0.518,0.067-0.746,0.2c-0.228,0.135-0.409,0.319-0.544,0.553c-0.136,0.234-0.203,0.491-0.203,0.77
				c0,0.273,0.066,0.524,0.197,0.755c0.133,0.23,0.315,0.415,0.547,0.552c0.232,0.137,0.482,0.204,0.748,0.204
				c0.268,0,0.517-0.065,0.746-0.2c0.228-0.136,0.411-0.32,0.546-0.556c0.135-0.233,0.203-0.483,0.203-0.755
				c0-0.271-0.065-0.523-0.196-0.757c-0.132-0.235-0.312-0.421-0.544-0.561C162.691,106.269,162.439,106.2,162.168,106.2z"/>
			<path fill="#F18C21" d="M164.783,105.667l2.807,2.956v-2.771h0.477v3.896l-2.822-2.946v2.793h-0.462V105.667z"/>
			<path fill="#F18C21" d="M173.295,107.917l0.303,0.314l-0.455,0.529l0.668,0.834h-0.578l-0.398-0.509
				c-0.351,0.393-0.726,0.587-1.126,0.587c-0.416,0-0.738-0.162-0.969-0.488c-0.122-0.172-0.181-0.347-0.181-0.524
				c0-0.334,0.12-0.614,0.36-0.839c0.13-0.122,0.305-0.257,0.526-0.406c-0.189-0.205-0.309-0.393-0.363-0.554
				c-0.029-0.089-0.044-0.175-0.044-0.264c0-0.334,0.132-0.571,0.395-0.715c0.132-0.074,0.285-0.109,0.461-0.109
				c0.354,0,0.604,0.127,0.757,0.389c0.07,0.116,0.104,0.247,0.104,0.389c0,0.185-0.073,0.364-0.224,0.538
				c-0.097,0.115-0.25,0.244-0.456,0.389l0.788,0.958L173.295,107.917z M172.552,108.759l-0.833-1.017
				c-0.183,0.126-0.31,0.211-0.378,0.264c-0.23,0.175-0.345,0.372-0.345,0.588c0,0.244,0.123,0.434,0.368,0.567
				c0.109,0.061,0.225,0.091,0.347,0.091C171.948,109.252,172.229,109.087,172.552,108.759z M171.817,107.161
				c0.335-0.231,0.502-0.441,0.502-0.63c0-0.126-0.042-0.225-0.125-0.296c-0.078-0.067-0.182-0.101-0.311-0.101
				c-0.111,0-0.206,0.034-0.284,0.105c-0.078,0.071-0.122,0.163-0.132,0.273C171.467,106.689,171.585,106.908,171.817,107.161z"/>
			<path fill="#F18C21" d="M176.556,106.278h-0.895v-0.426h2.248v0.426h-0.895v3.316h-0.459V106.278z"/>
			<path fill="#F18C21" d="M178.517,105.853h0.668c0.436,0,0.748,0.068,0.937,0.203c0.291,0.21,0.436,0.49,0.436,0.845
				c0,0.274-0.082,0.513-0.245,0.708c-0.163,0.197-0.38,0.316-0.652,0.358l1.18,1.628h-0.56l-1.107-1.58h-0.193v1.58h-0.465V105.853
				z M178.982,106.271v1.36c0.259,0,0.471-0.021,0.634-0.057c0.338-0.079,0.505-0.293,0.505-0.647c0-0.439-0.328-0.657-0.986-0.657
				H178.982z"/>
			<path fill="#F18C21" d="M182.845,105.69l1.79,3.904h-0.504l-0.428-0.938h-1.709l-0.427,0.938h-0.509L182.845,105.69z
				 M182.843,106.715l-0.658,1.517h1.326L182.843,106.715z"/>
			<path fill="#F18C21" d="M184.206,105.853h0.517l1.113,2.763l1.114-2.763h0.511l-1.625,3.934L184.206,105.853z"/>
			<path fill="#F18C21" d="M188.921,105.69l1.792,3.904h-0.504l-0.43-0.938h-1.708l-0.427,0.938h-0.509L188.921,105.69z
				 M188.921,106.715l-0.658,1.517h1.326L188.921,106.715z"/>
			<path fill="#F18C21" d="M193.481,105.853h0.463v2.379c0,0.419-0.123,0.762-0.371,1.029c-0.254,0.274-0.589,0.412-1.004,0.412
				c-0.276,0-0.518-0.063-0.727-0.191c-0.219-0.132-0.383-0.32-0.492-0.564c-0.097-0.217-0.146-0.437-0.146-0.663v-2.401h0.464
				v2.288c0,0.317,0.068,0.576,0.202,0.767c0.157,0.218,0.39,0.326,0.699,0.326c0.607,0,0.912-0.379,0.912-1.135V105.853z"/>
			<path fill="#F18C21" d="M195.655,107.631l-1.028-1.778h0.537l0.763,1.358l0.813-1.358h0.536l-1.084,1.784l1.14,1.958H196.8
				l-0.874-1.544l-0.923,1.544h-0.52L195.655,107.631z"/>
			<path fill="#F18C21" d="M199.579,105.853h0.779c0.409,0,0.773,0.075,1.093,0.221c0.361,0.17,0.631,0.418,0.809,0.747
				c0.132,0.249,0.2,0.533,0.2,0.854c0,0.54-0.163,0.983-0.49,1.336c-0.362,0.389-0.888,0.585-1.57,0.585h-0.823V105.853z
				 M200.046,106.278v2.89h0.283c0.71,0,1.2-0.234,1.467-0.701c0.126-0.22,0.189-0.471,0.189-0.754c0-0.485-0.167-0.852-0.504-1.103
				c-0.299-0.22-0.699-0.332-1.203-0.332H200.046z"/>
			<path fill="#F18C21" d="M203.144,105.853h0.466v3.742h-0.466V105.853z"/>
			<path fill="#F18C21" d="M204.164,105.853h0.517l1.112,2.763l1.115-2.763h0.51l-1.624,3.934L204.164,105.853z"/>
			<path fill="#F18C21" d="M207.988,105.853h2.009v0.426h-1.544v1.048h1.504v0.427h-1.504v1.415h1.544v0.427h-2.009V105.853z"/>
			<path fill="#F18C21" d="M210.821,105.853h0.668c0.436,0,0.749,0.068,0.937,0.203c0.29,0.21,0.436,0.49,0.436,0.845
				c0,0.274-0.081,0.513-0.245,0.708c-0.163,0.197-0.38,0.316-0.651,0.358l1.179,1.628h-0.559l-1.107-1.58h-0.193v1.58h-0.465
				V105.853z M211.286,106.271v1.36c0.259,0,0.472-0.021,0.633-0.057c0.339-0.079,0.507-0.293,0.507-0.647
				c0-0.439-0.328-0.657-0.985-0.657H211.286z"/>
			<path fill="#F18C21" d="M215.429,106.561c-0.141-0.241-0.344-0.36-0.609-0.36c-0.236,0-0.416,0.092-0.538,0.275
				c-0.056,0.081-0.083,0.161-0.083,0.24c0,0.237,0.122,0.402,0.366,0.495l0.426,0.165c0.434,0.168,0.71,0.392,0.826,0.665
				c0.066,0.157,0.099,0.314,0.099,0.474c0,0.237-0.066,0.449-0.199,0.637c-0.132,0.188-0.309,0.328-0.53,0.422
				c-0.156,0.066-0.306,0.1-0.452,0.1c-0.415,0-0.738-0.167-0.967-0.502c-0.11-0.161-0.177-0.343-0.199-0.548l0.465-0.099
				c0,0.149,0.038,0.28,0.114,0.396c0.139,0.209,0.342,0.313,0.611,0.313c0.179,0,0.333-0.059,0.463-0.175
				c0.129-0.118,0.202-0.266,0.217-0.443l0.009-0.124c0.015-0.185-0.05-0.334-0.198-0.448c-0.116-0.091-0.291-0.185-0.524-0.285
				c-0.274-0.117-0.455-0.203-0.542-0.257c-0.301-0.178-0.453-0.444-0.453-0.795c0-0.237,0.097-0.448,0.293-0.633
				c0.213-0.202,0.484-0.305,0.814-0.305c0.419,0,0.738,0.19,0.956,0.568L215.429,106.561z"/>
		</g>
	</g>
</g>
</svg>
